<?xml version="1.0" encoding="utf-8"?><!-- Uploaded to: SVG Repo, www.svgrepo.com, Generator: SVG Repo Mixer Tools -->
<svg version="1.1" id="Uploaded to svgrepo.com" xmlns="http://www.w3.org/2000/svg" xmlns:xlink="http://www.w3.org/1999/xlink" 
	 width="800px" height="800px" viewBox="0 0 32 32" xml:space="preserve">
<style type="text/css">
	.sharpcorners_een{fill:#111918;}
	.st0{fill:#111918;}
</style>
<path class="sharpcorners_een" d="M18,13h-4V2h4V13z M26,11h-4v10h4V11z M26,27h-4v3h4V27z M26,2h-4v3h4V2z M18,19h-4v11h4V19z
	 M21,14H11v4h10V14z M30,22H19v4h11V22z M30,6H19v4h11V6z M10,11H6v10h4V11z M10,27H6v3h4V27z M10,2H6v3h4V2z M13,22H2v4h11V22z
	 M13,6H2v4h11V6z M5,14H2v4h3V14z M30,14h-3v4h3V14z"/>
</svg>