<?xml version="1.0" encoding="UTF-8" standalone="no"?>
<!-- Created with Inkscape (http://www.inkscape.org/) -->

<svg
   width="1920"
   height="1080"
   viewBox="0 0 507.99999 285.75"
   version="1.1"
   id="svg1"
   xml:space="preserve"
   xmlns:inkscape="http://www.inkscape.org/namespaces/inkscape"
   xmlns:sodipodi="http://sodipodi.sourceforge.net/DTD/sodipodi-0.dtd"
   xmlns="http://www.w3.org/2000/svg"
   xmlns:svg="http://www.w3.org/2000/svg"><sodipodi:namedview
     id="namedview1"
     pagecolor="#ffffff"
     bordercolor="#000000"
     borderopacity="0.25"
     inkscape:showpageshadow="2"
     inkscape:pageopacity="0.0"
     inkscape:pagecheckerboard="0"
     inkscape:deskcolor="#d1d1d1"
     inkscape:document-units="mm"><inkscape:page
       x="0"
       y="0"
       width="508"
       height="285.75"
       id="page2"
       margin="0"
       bleed="0" /></sodipodi:namedview><defs
     id="defs1" /><g
     inkscape:label="Layer 1"
     inkscape:groupmode="layer"
     id="layer1"><path
       id="rect1"
       style="fill:#000000;stroke-width:0.264583"
       d="M -2.1404378,1.0702189 V 288.97306 H 509.44849 V 1.0702189 Z M 215.45197,26.846423 h 14.99081 v 11.243242 h -14.99081 z m 29.98214,0 h 14.99134 v 41.225391 h -14.99134 z m 29.98215,0 H 290.4076 V 38.089665 H 275.41626 Z M 200.46063,41.83724 h 41.22591 v 14.991333 h -41.22591 z m 63.71239,0 h 41.22591 v 14.991333 h -41.22591 z m -48.72105,18.738907 h 14.99081 v 37.477816 h -14.99081 z m 59.96429,0 h 14.99134 v 37.477816 h -14.99134 z m -74.95563,11.243759 h 11.24324 v 14.990816 h -11.24324 z m 33.73024,0 h 37.47782 v 14.990816 h -37.47782 z m 59.9643,0 h 11.24376 v 14.990816 h -11.24376 z m -48.72106,18.738907 h 14.99134 V 131.7842 h -14.99134 z m -44.97348,11.243237 h 41.22591 v 14.99134 h -41.22591 z m 63.71239,0 h 41.22591 v 14.99134 h -41.22591 z m -48.72105,18.73891 h 14.99081 v 11.24324 h -14.99081 z m 59.96429,0 H 290.4076 V 131.7842 H 275.41626 Z M 98.667362,142.82539 h 6.572728 5.03018 c 4.38151,0 6.57273,3.57027 6.57273,10.22367 v 16.47134 c 0,6.6534 -2.19122,10.30428 -6.57273,10.30428 h -5.03018 v 18.17512 h -6.572728 z m 20.609598,0 h 6.57221 5.0307 c 4.3815,0 6.57221,3.57027 6.57221,10.22367 v 16.47134 c 0,4.05695 -0.81118,5.84195 -2.43396,6.65334 1.62278,0.73025 2.43396,2.51526 2.43396,6.57221 v 15.25385 h -6.57221 v -15.25385 -2.92127 h -5.0307 v 18.17512 h -6.57221 z m 20.60908,0 h 6.5722 9.65575 v 7.3024 h -9.65575 v 22.3945 h 6.49108 v 7.30239 h -6.49108 v 10.87272 h 9.65575 v 7.3024 h -9.65575 -6.5722 v -18.17512 -7.30239 -22.3945 z m 19.06808,0 h 6.57221 5.03018 c 4.38151,0 6.57273,3.57027 6.57273,10.22367 v 34.64646 c 0,6.6534 -2.19122,10.30428 -6.57273,10.30428 h -5.03018 -6.57221 z m 20.60908,0 h 6.57221 v 55.17441 h -6.57221 z m 15.57889,0 h 5.03019 c 1.62278,0 2.92118,0.48671 3.97598,1.46038 l 2.59674,-1.46038 v 10.22367 7.95145 h -6.57272 v -7.95145 -2.92127 h -5.03019 v 2.92127 34.64646 3.00188 h 5.03019 v -3.00188 -7.87084 h 6.57272 v 7.87084 c 0,6.6534 -2.19122,10.30428 -6.57272,10.30428 h -5.03019 c -4.3815,0 -6.57272,-3.65088 -6.57272,-10.30428 v -34.64646 c 0,-6.6534 2.19122,-10.22367 6.57272,-10.22367 z m 13.63121,0 h 5.84202 6.49108 5.84202 v 7.3024 h -5.84202 v 47.87201 h -6.49108 v -47.87201 h -5.84202 z m 36.83703,0 h 5.84202 6.49108 5.84202 v 7.3024 h -5.84202 v 47.87201 h -6.49108 v -47.87201 h -5.84202 z m 21.01474,0 h 6.57272 v 29.6969 h 5.03019 v -29.6969 h 6.57272 v 29.6969 7.30239 18.17512 h -6.57272 v -18.17512 h -5.03019 v 18.17512 h -6.57272 v -18.17512 -7.30239 z m 21.42091,0 h 6.57221 9.65574 v 7.3024 h -9.65574 v 22.3945 h 6.49108 v 7.30239 h -6.49108 v 10.87272 h 9.65574 v 7.3024 h -9.65574 -6.57221 v -18.17512 -7.30239 -22.3945 z m 34.07854,0 h 6.57221 l 4.13825,48.43994 4.21887,-48.43994 h 6.57272 l -5.35523,55.17441 h -4.7873 -1.21698 -4.78731 z m 23.53035,0 h 6.57221 v 55.17441 h -6.57221 z m 9.81749,0 h 6.57272 5.03019 c 4.3815,0 6.57272,3.57027 6.57272,10.22367 v 16.47134 c 0,4.05695 -0.81169,5.84195 -2.43447,6.65334 1.62278,0.73025 2.43447,2.51526 2.43447,6.57221 v 15.25385 h -6.57272 v -15.25385 -2.92127 h -5.03019 v 18.17512 h -6.57272 z m 24.74784,0 h 4.78679 1.2175 4.78679 l 5.35522,55.17441 h -6.5722 l -1.13585,-13.06328 h -6.16655 l -1.05472,13.06328 h -6.57221 z m 18.17512,0 h 6.57221 v 47.87201 h 11.60291 v 7.3024 h -11.60291 -6.57221 v -7.3024 z m -12.82041,6.73447 -2.43396,28.07426 h 4.86844 z m -280.33482,0.56793 v 22.3945 h 5.03018 v -3.00189 -16.47134 -2.92127 z m 20.60908,0 v 22.3945 h 5.0307 v -3.00189 -16.47134 -2.92127 z m 39.67716,0 v 40.56961 h 5.03018 v -3.00188 -34.64646 -2.92127 z m 196.51875,0 v 22.3945 h 5.03019 v -3.00189 -16.47134 -2.92127 z" /></g><style
     type="text/css"
     id="style1">
	.sharpcorners_een{fill:#111918;}
	.st0{fill:#111918;}
</style></svg>
